<?xml version="1.0" encoding="UTF-8"?> <svg xmlns="http://www.w3.org/2000/svg" xmlns:xlink="http://www.w3.org/1999/xlink" width="500px" height="500px" viewBox="0 0 500 500"> <!-- Generator: Sketch 63.1 (92452) - https://sketch.com --> <title>lg_universal_audio</title> <desc>Created with Sketch.</desc> <g id="Page-1" stroke="none" stroke-width="1" fill="none" fill-rule="evenodd"> <g id="Artboard" transform="translate(-2262.000000, -228.000000)"> <g id="lg_universal_audio" transform="translate(2262.000000, 228.000000)"> <rect id="Rectangle" x="0" y="0" width="500" height="500"></rect> <g id="universal-audio-vector-logo" transform="translate(25.000000, 84.000000)"> <polygon id="Path" stroke="#FFFFFF" stroke-width="10.6063015" points="7.34558824 126.330882 224.404412 0.397058824 441.397059 126.330882 224.404412 253.588235"></polygon> <path d="M4.96323529,287.801471 L4.96323529,319.301471 C4.96323529,323.669118 6.22058824,327.375 11.25,327.375 C16.2794118,327.375 17.5367647,323.669118 17.5367647,319.301471 L17.5367647,287.801471 L22.1691176,287.801471 L22.1691176,319.433824 C22.1691176,326.316176 18.9926471,331.345588 11.25,331.345588 C3.50735294,331.345588 0.330882353,326.382353 0.330882353,319.433824 L0.330882353,287.801471 L4.96323529,287.801471" id="Path" fill="#FFFFFF" fill-rule="nonzero"></path> <polyline id="Path" fill="#FFFFFF" fill-rule="nonzero" points="42.6176471 287.801471 53.6691176 319.433824 53.8014706 319.433824 53.8014706 287.801471 58.4338235 287.801471 58.4338235 330.683824 53.4705882 330.683824 40.1029412 293.360294 40.0367647 293.360294 40.0367647 330.683824 35.4044118 330.683824 35.4044118 287.801471 42.6176471 287.801471"></polyline> <rect id="Rectangle" fill="#FFFFFF" fill-rule="nonzero" x="72" y="287.801471" width="4.63235294" height="42.8823529"></rect> <polyline id="Path" fill="#FFFFFF" fill-rule="nonzero" points="92.3823529 287.801471 99.9264706 321.816176 100.058824 321.816176 107.602941 287.801471 112.235294 287.801471 102.176471 330.683824 97.875 330.683824 87.75 287.801471 92.3823529 287.801471"></polyline> <polyline id="Path" fill="#FFFFFF" fill-rule="nonzero" points="142.676471 287.801471 142.676471 291.705882 127.720588 291.705882 127.720588 306.330882 138.772059 306.330882 138.772059 310.235294 127.720588 310.235294 127.720588 326.779412 143.404412 326.779412 143.404412 330.683824 123.088235 330.683824 123.088235 287.801471 142.676471 287.801471"></polyline> <path d="M155.382353,287.801471 L165.705882,287.801471 C172.588235,287.801471 177.485294,291.838235 177.485294,298.919118 C177.485294,303.75 175.367647,307.786765 170.602941,309.441176 L177.882353,330.683824 L172.985294,330.683824 L166.102941,310.367647 L160.014706,310.632353 L160.014706,330.683824 L155.382353,330.683824 L155.382353,287.801471 M160.014706,306.595588 L164.051471,306.595588 C170.735294,306.595588 172.852941,303.948529 172.852941,299.183824 C172.852941,294.352941 170.735294,291.772059 164.051471,291.772059 L160.014706,291.772059 L160.014706,306.595588 Z" id="Shape" fill="#FFFFFF" fill-rule="nonzero"></path> <path d="M206.338235,298.852941 C206.007353,294.485294 204.220588,291.110294 199.720588,291.110294 C196.147059,291.110294 193.830882,293.492647 193.830882,296.735294 C193.830882,306.397059 211.036765,306.529412 211.036765,320.294118 C211.036765,327.110294 207.132353,331.213235 200.051471,331.213235 C193.301471,331.213235 189.264706,326.25 189.198529,319.102941 L193.5,319.102941 C193.632353,324.132353 196.014706,327.308824 200.580882,327.308824 C204.419118,327.308824 206.933824,324.794118 206.933824,320.227941 C206.933824,310.5 189.727941,309.375 189.727941,297.132353 C189.727941,291.110294 193.897059,287.139706 200.051471,287.139706 C206.205882,287.139706 210.242647,291.308824 210.639706,298.786765 L206.338235,298.786765" id="Path" fill="#FFFFFF" fill-rule="nonzero"></path> <path d="M235.852941,287.801471 L245.316176,330.683824 L240.683824,330.683824 L238.102941,317.977941 L227.183824,317.977941 L224.602941,330.683824 L219.970588,330.683824 L229.433824,287.801471 L235.852941,287.801471 M227.779412,314.073529 L237.375,314.073529 L232.610294,291.044118 L232.477941,291.044118 L227.779412,314.073529 Z" id="Shape" fill="#FFFFFF" fill-rule="nonzero"></path> <polyline id="Path" fill="#FFFFFF" fill-rule="nonzero" points="260.272059 287.801471 260.272059 326.779412 274.169118 326.779412 274.169118 330.683824 255.639706 330.683824 255.639706 287.801471 260.272059 287.801471"></polyline> <path d="M316.323529,287.801471 L325.786765,330.683824 L321.154412,330.683824 L318.573529,317.977941 L307.654412,317.977941 L305.073529,330.683824 L300.441176,330.683824 L309.904412,287.801471 L316.323529,287.801471 M308.316176,314.073529 L317.911765,314.073529 L313.147059,291.044118 L313.014706,291.044118 L308.316176,314.073529 Z" id="Shape" fill="#FFFFFF" fill-rule="nonzero"></path> <path d="M340.808824,287.801471 L340.808824,319.301471 C340.808824,323.669118 342.066176,327.375 347.095588,327.375 C352.125,327.375 353.382353,323.669118 353.382353,319.301471 L353.382353,287.801471 L358.014706,287.801471 L358.014706,319.433824 C358.014706,326.316176 354.838235,331.345588 347.095588,331.345588 C339.352941,331.345588 336.176471,326.382353 336.176471,319.433824 L336.176471,287.801471 L340.808824,287.801471" id="Path" fill="#FFFFFF" fill-rule="nonzero"></path> <path d="M371.779412,287.801471 L379.720588,287.801471 C388.786765,287.801471 394.213235,292.764706 394.213235,309.242647 C394.213235,325.720588 388.720588,330.683824 379.720588,330.683824 L371.779412,330.683824 L371.779412,287.801471 M376.411765,326.779412 L378.926471,326.779412 C385.676471,326.779412 389.647059,323.933824 389.647059,309.242647 C389.647059,294.551471 385.742647,291.705882 378.926471,291.705882 L376.411765,291.705882 L376.411765,326.779412 Z" id="Shape" fill="#FFFFFF" fill-rule="nonzero"></path> <rect id="Rectangle" fill="#FFFFFF" fill-rule="nonzero" x="407.779412" y="287.801471" width="4.63235294" height="42.8823529"></rect> <path d="M437.492647,331.279412 C430.213235,331.279412 425.382353,325.257353 425.382353,309.242647 C425.382353,293.294118 430.279412,287.205882 437.492647,287.205882 C444.772059,287.205882 449.602941,293.294118 449.602941,309.242647 C449.602941,325.257353 444.772059,331.279412 437.492647,331.279412 M437.492647,291.110294 C433.323529,291.110294 430.014706,294.683824 430.014706,309.242647 C430.014706,323.801471 433.323529,327.375 437.492647,327.375 C441.661765,327.375 444.970588,323.801471 444.970588,309.242647 C444.970588,294.683824 441.661765,291.110294 437.492647,291.110294 Z" id="Shape" fill="#FFFFFF" fill-rule="nonzero"></path> <path d="M269.669118,145.257353 L373.367647,139.566176 L373.367647,134.801471 L269.669118,134.338235 L269.669118,80.4705882 C269.669118,80.4705882 269.669118,78.6176471 269.602941,76.5 C269.602941,75.2426471 269.669118,73.6544118 269.669118,71.7352941 C269.867647,35.2720588 238.433824,37.5220588 237.904412,37.5882353 C237.375,37.5220588 205.941176,35.2720588 206.139706,71.7352941 C206.139706,73.6544118 206.139706,75.2426471 206.205882,76.5 C206.205882,78.6176471 206.139706,80.4705882 206.139706,80.4705882 L206.139706,134.139706 L199.257353,134.139706 L187.676471,149.823529 L206.139706,148.830882 L206.139706,165.441176 C206.139706,165.441176 206.139706,170.735294 206.139706,174.507353 C206.073529,195.220588 189.529412,193.897059 189.132353,193.830882 L189.132353,193.830882 L189.132353,193.830882 C188.669118,193.897059 171.926471,195.220588 171.860294,174.507353 C171.860294,170.735294 171.860294,165.441176 171.860294,165.441176 L171.860294,96.9485294 C171.860294,96.9485294 171.860294,95.0955882 171.794118,92.9779412 C171.794118,91.7205882 171.860294,88.0147059 171.860294,86.0955882 C171.397059,53.9338235 134.007353,65.5808824 134.007353,65.5808824 C134.007353,65.5808824 157.036765,64.8529412 157.102941,85.8970588 C157.102941,88.6102941 157.169118,94.3014706 157.235294,96.0882353 C157.235294,96.6176471 157.235294,96.9485294 157.235294,96.9485294 L157.235294,165.441176 C157.235294,165.441176 157.301471,167.955882 157.235294,174.176471 C157.036765,210.838235 188.867647,208.588235 189.132353,208.588235 C189.330882,208.588235 221.095588,210.838235 220.897059,174.176471 C220.830882,168.022059 220.897059,165.441176 220.897059,165.441176 L220.897059,147.970588 L255.176471,146.051471 L255.176471,174.970588 L255.110294,174.970588 C255.110294,176.227941 255.044118,179.933824 255.044118,181.852941 C255.507353,214.014706 292.897059,202.367647 292.897059,202.367647 C292.897059,202.367647 269.867647,203.095588 269.801471,182.051471 C269.801471,180.529412 269.801471,178.147059 269.735294,175.963235 L269.735294,175.963235 L269.735294,145.257353 M220.764706,134.139706 L220.764706,80.4705882 C220.764706,80.4705882 220.764706,80.1397059 220.764706,79.6102941 C220.764706,77.8235294 220.897059,74.25 220.897059,71.5367647 C220.963235,50.5588235 238.036765,52.1470588 238.036765,52.1470588 C238.036765,52.1470588 254.911765,50.4926471 254.911765,71.5367647 C254.911765,74.25 254.977941,77.8235294 255.044118,79.6102941 C255.044118,80.1397059 255.044118,80.4705882 255.044118,80.4705882 L255.044118,134.272059 L220.764706,134.139706 Z" id="Shape" fill="#FFFFFF" fill-rule="nonzero"></path> <rect id="Rectangle" fill="#FFFFFF" fill-rule="nonzero" x="321.485294" y="104.161765" width="2.25" height="20.3161765"></rect> <path d="M338.823529,104.161765 L341.073529,104.161765 L341.073529,124.477941 L337.367647,124.477941 L331.676471,108.198529 C331.345588,107.272059 331.147059,106.345588 330.948529,105.154412 L330.882353,105.154412 C330.948529,106.213235 330.948529,107.272059 330.948529,108.264706 L330.948529,124.477941 L328.698529,124.477941 L328.698529,104.161765 L332.338235,104.161765 L338.095588,120.772059 C338.294118,121.367647 338.492647,122.029412 338.757353,123.022059 L338.823529,123.022059 C338.823529,122.294118 338.757353,121.5 338.757353,120.772059 L338.757353,104.161765" id="Path" fill="#FFFFFF" fill-rule="nonzero"></path> <path d="M354.838235,110.316176 C354.772059,107.933824 353.977941,105.816176 351.198529,105.816176 C347.294118,105.816176 347.227941,111.375 347.227941,114.088235 C347.095588,116.867647 347.029412,123.022059 351.198529,123.022059 C353.845588,123.022059 354.441176,120.838235 354.705882,118.588235 C354.772059,118.125 354.772059,117.661765 354.838235,117.198529 L357.088235,117.198529 C357.022059,117.595588 357.022059,118.058824 356.955882,118.455882 C356.823529,120.110294 356.691176,121.367647 355.764706,122.757353 C354.705882,124.213235 353.316176,125.007353 351.330882,125.007353 C345.110294,125.007353 344.845588,118.985294 344.845588,114.088235 C344.845588,109.522059 345.507353,103.764706 351.330882,103.764706 C355.169118,103.764706 357.154412,106.610294 357.088235,110.25 L354.838235,110.25" id="Path" fill="#FFFFFF" fill-rule="nonzero"></path> <rect id="Rectangle" fill="#FFFFFF" fill-rule="nonzero" x="360.926471" y="121.764706" width="2.44852941" height="2.71323529"></rect> </g> </g> </g> </g> </svg> 