<?xml version="1.0" encoding="UTF-8"?> <svg xmlns="http://www.w3.org/2000/svg" xmlns:xlink="http://www.w3.org/1999/xlink" width="500px" height="500px" viewBox="0 0 500 500"> <!-- Generator: Sketch 63.1 (92452) - https://sketch.com --> <title>lg_apogee</title> <desc>Created with Sketch.</desc> <g id="Page-1" stroke="none" stroke-width="1" fill="none" fill-rule="evenodd"> <g id="Artboard" transform="translate(-562.000000, -228.000000)"> <g id="lg_apogee" transform="translate(562.000000, 228.000000)"> <rect id="Rectangle" x="0" y="0" width="500" height="500"></rect> <g id="Apogee_Electronics_-_logo" transform="translate(50.000000, 72.000000)" fill-rule="nonzero"> <g id="g3073" transform="translate(184.975823, 220.981368) scale(-1, 1) rotate(-180.000000) translate(-184.975823, -220.981368) translate(119.475823, 180.481368)" fill="#F2F2F2"> <polygon id="path3075" points="0 0 130.225264 80.9922288 40.0218407 80.9922288"></polygon> </g> <g id="g3077" transform="translate(199.845307, 131.229032) scale(-1, 1) rotate(-180.000000) translate(-199.845307, -131.229032) translate(40.345307, 0.229032)" fill="#F3F3F3"> <g id="g3079-Clipped"> <path d="M314.587439,48.6024482 L233.560925,214.689659 C219.378428,244.391761 198.304678,261.499898 168.556862,261.499898 C141.346125,261.499898 119.026691,244.083198 106.432726,221.26092 L106.409869,221.26092 L0.343991264,0.752234864 L65.485194,0.752234864 L153.837236,178.564862 C157.060011,183.03332 162.328449,186.701798 168.271155,186.701798 C174.88813,186.701798 180.67084,182.324766 183.722191,176.953474 L257.217467,22.3631146 C262.45162,9.89485981 273.274203,0.877945957 287.205277,0.877945957 C304.724832,0.877945957 318.930186,15.106156 318.930186,32.6257111 C318.930186,38.4541345 317.341655,43.9054246 314.587439,48.6024482" id="path3087"></path> </g> </g> <g id="g3089" transform="translate(34.281898, 323.258390) scale(-1, 1) rotate(-180.000000) translate(-34.281898, -323.258390) translate(0.281898, 290.758390)" fill="#FFFFFF"> <path d="M28.6773669,64.8313694 L39.1228159,64.8313694 L67.3620987,0.215867534 L55.4424015,0.215867534 L48.9397095,15.7126168 L18.5976229,15.7126168 L12.0035047,0.215867534 L0.449512393,0.215867534 L28.6773669,64.8313694 Z M44.8141,25.7009346 L33.7172389,51.3688541 L22.7232324,25.7009346 L44.8141,25.7009346 Z" id="path3091"></path> </g> <g id="g3093" transform="translate(176.618976, 323.421840) scale(-1, 1) rotate(-180.000000) translate(-176.618976, -323.421840) translate(77.118976, 288.921840)" fill="#FFFFFF"> <g id="g3095-Clipped"> <g id="g3095" transform="translate(0.832995, 0.832995)"> <g id="g3101" transform="translate(0.676935, 0.869438)"> <path d="M0,64.8313694 L25.3022145,64.8313694 C40.2389781,64.8313694 49.6787383,56.3172999 49.6787383,43.3919139 L49.6787383,43.2090614 C49.6787383,28.8208553 38.1361743,21.3010463 24.0222471,21.3010463 L11.2682852,21.3010463 L11.2682852,0.684427062 L0,0.684427062 L0,64.8313694 Z M24.3879521,31.4722166 C32.9134498,31.4722166 38.2276006,36.2492381 38.2276006,42.9347826 L38.2276006,43.1176351 C38.2276006,50.6374441 32.8105953,54.5687729 24.3879521,54.5687729 L11.2682852,54.5687729 L11.2682852,31.4722166 L24.3879521,31.4722166 Z" id="path3103"></path> </g> <g id="g3105" transform="translate(59.058310, 0.087363)"> <path d="M0,33.3502641 L0,33.5445449 C0,51.6012292 13.9310748,66.7208452 33.6448598,66.7208452 C53.3472166,66.7208452 67.0954388,51.7840817 67.0954388,33.7159691 L67.0954388,33.5445449 C67.0954388,15.4878606 53.1643641,0.356816335 33.450579,0.356816335 C13.7482223,0.356816335 0,15.3050081 0,33.3502641 M55.2671678,33.3502641 L55.2671678,33.5445449 C55.2671678,46.0013714 46.2045408,56.3553941 33.450579,56.3553941 C20.7194738,56.3553941 11.828271,46.1842239 11.828271,33.7159691 L11.828271,33.5445449 C11.828271,21.0762901 20.9023263,10.7222674 33.6448598,10.7222674 C46.3759651,10.7222674 55.2671678,20.8934376 55.2671678,33.3502641" id="path3107"></path> </g> <g id="g3109" transform="translate(136.964902, 0.087363)"> <path d="M0,33.3502641 L0,33.5445449 C0,51.4983746 13.7482223,66.7208452 33.084874,66.7208452 C44.2731613,66.7208452 51.1415583,63.6123527 57.7471048,58.0124949 L50.5930008,49.4869972 C45.6445551,53.7040329 40.7875356,56.3553941 32.6277428,56.3553941 C20.8109,56.3553941 11.8168427,46.0013714 11.8168427,33.7159691 L11.8168427,33.5445449 C11.8168427,20.3448801 20.525193,10.6194128 33.6448598,10.6194128 C39.6789923,10.6194128 45.1874238,12.5507924 49.1301808,15.4878606 L49.1301808,27.4989842 L32.719169,27.4989842 L32.719169,37.2930211 L60.0213328,37.2930211 L60.0213328,10.3565624 C53.7014933,4.93955709 44.6388663,0.356816335 33.2677265,0.356816335 C13.1996648,0.356816335 0,14.6650244 0,33.3502641" id="path3111"></path> </g> </g> </g> </g> <g id="g3113" transform="translate(314.105262, 323.720092) scale(-1, 1) rotate(-180.000000) translate(-314.105262, -323.720092) translate(289.605262, 291.220092)" fill="#FFFFFF"> <polygon id="path3115" points="0 64.8313694 47.5759346 64.8313694 47.5759346 54.7516254 11.2797135 54.7516254 11.2797135 38.0663348 43.4503251 38.0663348 43.4503251 27.9865908 11.2797135 27.9865908 11.2797135 10.7641711 48.0330658 10.7641711 48.0330658 0.684427062 0 0.684427062"></polygon> </g> <g id="g3117" transform="translate(375.516274, 323.720092) scale(-1, 1) rotate(-180.000000) translate(-375.516274, -323.720092) translate(351.016274, 291.220092)" fill="#FFFFFF"> <polygon id="path3119" points="0 64.8313694 47.5645063 64.8313694 47.5645063 54.7516254 11.2797135 54.7516254 11.2797135 38.0663348 43.4503251 38.0663348 43.4503251 27.9865908 11.2797135 27.9865908 11.2797135 10.7641711 48.0216375 10.7641711 48.0216375 0.684427062 0 0.684427062"></polygon> </g> </g> </g> </g> </g> </svg> 