<?xml version="1.0" encoding="UTF-8"?> <svg xmlns="http://www.w3.org/2000/svg" xmlns:xlink="http://www.w3.org/1999/xlink" width="500px" height="500px" viewBox="0 0 500 500"> <!-- Generator: Sketch 63.1 (92452) - https://sketch.com --> <title>lg_akg</title> <desc>Created with Sketch.</desc> <g id="Page-1" stroke="none" stroke-width="1" fill="none" fill-rule="evenodd"> <g id="Artboard" transform="translate(-4812.000000, -228.000000)"> <g id="lg_akg" transform="translate(4812.000000, 228.000000)"> <rect id="Rectangle" x="0" y="0" width="500" height="500"></rect> <g id="akg-logo-svg-vector" transform="translate(38.000000, 59.000000)"> <path d="M95.2286211,331.667133 C115.617215,375.184978 168.128009,408.577175 213.47032,353.064331 C254.59603,400.18358 301.14761,381.395024 324.253098,346.582332 C336.696953,327.83602 291.233187,363.707483 294.66297,291.811419 C294.728978,290.377722 343.580281,279.119374 343.524882,277.672475 C342.400056,249.444755 331.091542,219.632839 306.874476,192.112726 C274.525207,155.367316 202.35983,134.690927 145.962476,169.75445 C98.3838101,199.334017 83.8778616,238.732954 84.7227658,279.290995 C84.9207902,288.851614 55.7187898,313.182214 57.3901159,322.758674 C58.7683658,330.650607 91.6245768,323.957382 95.2286211,331.667133 L95.2286211,331.667133 Z" id="Path" stroke="#FFFFFF" stroke-width="7.62526015"></path> <path d="M163.739788,269.2736 L163.737148,355.068338 L188.878328,355.057777 L188.865126,322.584413 L202.887895,322.584413 L242.952195,355.063057 L279.079769,355.057777 L225.159041,313.580903 L274.670425,269.284161 L240.676234,269.289442 L202.843009,303.199143 L188.865126,303.199143 L188.862486,269.284161 L163.739788,269.2736 L163.739788,269.2736 Z M283.478551,289.807412 C285.036343,280.402572 295.5554,269.627403 307.127947,269.627403 C307.127947,269.627403 324.218774,269.265679 337.848135,269.265679 C351.477495,269.265679 368.618488,269.569316 368.618488,269.569316 C392.912124,270.482869 392.80387,287.710993 392.80387,297.58053 L368.396701,297.569969 C368.396701,294.41478 366.76762,288.606063 356.22216,288.606063 L324.224055,288.606063 C313.689156,288.606063 308.218402,292.912434 308.218402,303.164818 L308.20784,321.245768 C308.20784,331.667133 313.649551,335.696269 324.234616,335.696269 L355.403659,335.675147 C364.850744,335.675147 368.996055,330.18855 368.996055,322.539527 L335.492964,322.534247 L335.492964,308.049421 L393.508837,308.038859 C393.85472,313.448886 393.107508,337.217097 393.107508,337.217097 C393.107508,346.458236 382.065666,354.806946 365.281117,354.806946 C365.281117,354.806946 344.70506,355.070978 330.009008,355.070978 C315.312956,355.070978 307.127947,354.204951 307.127947,354.204951 C292.941478,354.204951 285.041624,343.56708 283.499674,333.243407 C283.499674,333.243407 282.287747,327.323797 282.287747,311.455441 C282.282484,295.584444 283.478551,289.807412 283.478551,289.807412 L283.478551,289.807412 Z" id="Shape" fill="#FFFFFF"></path> <path d="M58.5703414,91.9255739 C-3.03373404,104.453919 -9.08271985,150.746746 9.06423757,188.32914 C27.0078899,225.47324 84.2501475,267.565309 153.725033,253.141211 C201.905694,243.137017 255.707607,190.507408 253.510856,124.604883 C251.216414,55.9088932 198.269966,13.5316684 146.025844,2.60336098 C106.972789,-5.56580623 27.770944,15.6756127 58.5703414,91.9255739 M364.972199,90.652937 C389.693567,23.8447799 331.384618,-4.47799211 287.098438,1.21190942 C228.23766,8.77116143 178.082036,49.5536297 171.13534,118.212655 C166.226975,166.715435 200.6621,233.394216 264.774485,251.197931 C331.606405,269.767341 388.935793,234.210077 415.225515,188.189203 C434.880098,153.785761 424.897027,97.9164725 364.972199,90.652937 Z" id="Shape" stroke="#FFFFFF" stroke-width="7.62526015"></path> <path d="M68.0702327,322.502563 L86.6502035,291.304476 L104.913335,322.492001 L68.0702327,322.502563 Z M103.036064,269.284161 L70.2485012,269.2736 L21.9859907,355.073618 L49.9470382,355.073618 L58.3828783,339.886466 L114.914888,339.886466 L123.432579,355.073618 L151.17976,355.08418 L103.036064,269.284161 L103.036064,269.284161 Z" id="Shape" fill="#FFFFFF"></path> </g> </g> </g> </g> </svg> 