<?xml version="1.0" encoding="UTF-8"?> <svg xmlns="http://www.w3.org/2000/svg" xmlns:xlink="http://www.w3.org/1999/xlink" width="500px" height="500px" viewBox="0 0 500 500"> <!-- Generator: Sketch 63.1 (92452) - https://sketch.com --> <title>lg_pro-tools</title> <desc>Created with Sketch.</desc> <g id="Page-1" stroke="none" stroke-width="1" fill="none" fill-rule="evenodd"> <g id="Artboard" transform="translate(-3112.000000, -228.000000)"> <g id="lg_pro-tools" transform="translate(3112.000000, 228.000000)"> <rect id="Rectangle" x="0" y="0" width="500" height="500"></rect> <g id="PT2019" transform="translate(50.000000, 50.000000)" fill="#F9F9F9" fill-rule="nonzero"> <g id="Group" transform="translate(200.000000, 200.955257) scale(-1, 1) rotate(-180.000000) translate(-200.000000, -200.955257) translate(0.000000, 0.955257)"> <path d="M184.787472,399.194631 C164.876957,397.718121 144.608501,393.020134 125.592841,385.548098 C117.718121,382.46085 102.774049,374.944072 95.3020134,370.33557 C55.8836689,345.995526 26.0850112,308.993289 11.0067114,265.727069 C6.12975391,251.812081 2.99776286,237.897092 1.02908277,221.879195 C-0.0894854586,212.662192 -0.0894854586,186.89038 1.02908277,177.583893 C2.37136465,166.487696 4.4295302,155.883669 6.97986577,146.532438 C7.60626398,144.384787 8.00894855,142.505593 7.96420582,142.416107 C7.56152125,142.058166 1.61073826,141.342282 0.850111857,141.565996 C0.313199105,141.744966 0,141.655481 0,141.252796 C0,140.939597 5.5033557,128.187919 12.2595078,112.930649 C20.49217,94.2281879 24.7427293,85.1454139 25.2348993,85.0559284 C25.9060403,84.9217002 31.9463087,86.3087248 33.6017897,86.9798658 C34.1387025,87.2035794 35.1230425,86.1297539 37.5391499,82.7740492 C52.4384787,61.8791946 72.6621924,43.0872483 95.3020134,29.1275168 C102.729306,24.5190157 117.718121,17.0022371 125.548098,13.9149888 C141.789709,7.56152125 158.702461,3.26621924 176.286353,1.02908277 C185.145414,-0.0894854586 208.635347,-0.313199105 218.344519,0.581655481 C249.082774,3.53467562 277.628635,12.9306488 303.847875,28.8143177 C326.442953,42.5503356 347.337808,61.9686801 362.639821,83.5346756 C364.563758,86.2192394 365.458613,87.1588367 365.950783,86.935123 C367.606264,86.3087248 373.691275,84.9217002 374.317673,85.0559284 C374.809843,85.1454139 379.060403,94.2281879 387.293065,112.930649 C394.049217,128.187919 399.552573,140.939597 399.552573,141.252796 C399.552573,141.655481 399.239374,141.744966 398.702461,141.565996 C398.03132,141.342282 391.946309,142.058166 391.677852,142.371365 C391.63311,142.416107 392.483221,145.950783 393.557047,150.246085 C395.973154,159.776286 397.941834,170.917226 398.836689,180.671141 C399.776286,190.246085 399.776286,209.082774 398.881432,218.568233 C394.451902,265.369128 374.451902,307.829978 341.163311,341.118568 C307.964206,374.317673 265.41387,394.407159 218.836689,398.791946 C212.12528,399.460525 191.185682,399.686801 184.787472,399.194631 Z M221.387025,376.957494 C242.818792,374.049217 260.894855,368.590604 278.791946,359.686801 C296.55481,350.82774 311.14094,340.402685 325.190157,326.442953 C354.630872,297.315436 372.080537,261.297539 377.270694,219.194631 C378.076063,212.841163 378.076063,186.577181 377.270694,180.268456 C376.286353,172.483221 374.988814,165.190157 373.288591,158.03132 L371.677852,151.275168 L368.948546,153.064877 C349.888143,165.861298 324.340045,199.060403 308.456376,231.677852 C302.908277,242.997763 298.926174,250.067114 293.243848,258.702461 C274.451902,287.114094 251.230425,305.41387 225.324385,312.259508 C215.436242,314.854586 212.885906,315.167785 199.776286,315.167785 C186.666667,315.167785 184.116331,314.854586 174.228188,312.259508 C148.322148,305.41387 125.190157,287.158837 106.263982,258.568233 C100.581655,250.022371 97.4944072,244.519016 91.4988814,232.393736 C78.8814318,206.800895 62.3266219,182.863535 45.5928412,165.950783 C39.2393736,159.552573 29.5749441,151.63311 28.098434,151.63311 C27.9642058,151.63311 27.1588367,154.317673 26.3982103,157.583893 C17.8076063,193.780761 20.4474273,231.543624 34.0044743,265.727069 C47.0693512,298.702461 71.1856823,328.36689 101.118568,348.36689 C125.369128,364.519016 153.736018,374.58613 183.44519,377.53915 C189.888143,378.165548 215.302013,377.807606 221.387025,376.957494 Z M205.145414,249.395973 C211.63311,247.740492 218.791946,242.997763 226.39821,235.346756 C232.706935,228.993289 237.807606,222.550336 244.966443,211.812081 C251.498881,202.013423 254.765101,196.465324 262.013423,183.087248 C274.183445,160.581655 285.503356,144.742729 300.671141,129.082774 C312.706935,116.644295 327.38255,105.234899 340.402685,98.1655481 C342.639821,96.9574944 344.519016,95.7941834 344.519016,95.6152125 C344.519016,95.1677852 340.402685,89.7986577 335.749441,84.295302 C330.64877,78.2102908 320.268456,67.9194631 314.317673,62.9530201 C287.248322,40.49217 256.912752,27.2930649 221.387025,22.5055928 C214.451902,21.5659955 192.885906,21.163311 185.190157,21.8344519 C159.284116,24.1163311 134.720358,31.6331096 112.214765,44.295302 C92.4384787,55.3467562 73.064877,72.1700224 58.4340045,90.917226 C56.5548098,93.3333333 55.033557,95.4362416 55.033557,95.6152125 C55.033557,95.7941834 56.9127517,96.9574944 59.1498881,98.1655481 C72.1700224,105.234899 86.8456376,116.644295 98.8814318,129.082774 C114.049217,144.742729 125.369128,160.581655 137.53915,183.087248 C144.787472,196.465324 148.053691,202.013423 154.58613,211.812081 C161.744966,222.550336 166.845638,228.993289 173.154362,235.346756 C185.100671,247.38255 195.346756,251.901566 205.145414,249.395973 Z" id="Shape"></path> </g> </g> </g> </g> </g> </svg> 