<?xml version="1.0" encoding="UTF-8"?> <svg xmlns="http://www.w3.org/2000/svg" xmlns:xlink="http://www.w3.org/1999/xlink" width="500px" height="500px" viewBox="0 0 500 500"> <!-- Generator: Sketch 63.1 (92452) - https://sketch.com --> <title>lg_telefunken</title> <desc>Created with Sketch.</desc> <g id="Page-1" stroke="none" stroke-width="1" fill="none" fill-rule="evenodd"> <g id="Artboard" transform="translate(-3962.000000, -228.000000)"> <g id="lg_telefunken" transform="translate(3962.000000, 228.000000)"> <rect id="Rectangle" x="0" y="0" width="500" height="500"></rect> <g id="Telefunken" transform="translate(57.000000, 25.000000)" fill="#FFFFFF" stroke="#FFFFFF" stroke-width="0.663716814"> <path d="M192.286195,2.17564413e-13 L384.571991,192.285796 L192.286195,384.504292 L-9.92244635e-13,192.285796 L192.286195,2.17564413e-13 Z M192.286195,19.2217699 L19.2217699,192.285796 L192.286195,365.282124 L365.349823,192.285796 L192.286195,19.2217699 Z" id="Combined-Shape"></path> <path d="M280.747035,103.893053 L280.747035,280.679735 L103.824956,280.679735 L103.824956,103.893053 L280.747035,103.893053 Z M269.173274,115.398717 L115.398319,115.398717 L115.398319,269.173673 L269.173274,269.173673 L269.173274,115.398717 Z" id="Combined-Shape"></path> <path d="M142.312973,269.173274 L173.064027,299.901106 L155.737035,299.901106 C167.920088,316.212611 180.102743,332.591814 192.286195,348.971018 L131.709823,288.395044 L145.178761,288.395044 C138.773236,281.989519 132.357271,275.583994 125.934965,269.174393 L142.312973,269.173274 Z M258.613973,269.173274 L239.39323,288.395044 L252.86177,288.395044 L192.286195,348.971018 C201.423186,336.686615 210.560401,324.402212 219.697504,312.14637 L228.834558,299.901106 L211.507965,299.901106 L242.257973,269.173274 L258.613973,269.173274 Z M35.6009735,192.285796 C51.9124779,204.400752 68.2239823,216.583805 84.6031858,228.766858 L84.6031858,211.507566 L115.397973,242.278274 L115.398666,258.659622 C108.971459,252.245151 102.540154,245.824379 96.1088496,239.39323 L96.1088496,252.794071 L35.6009735,192.285796 Z M348.971018,192.285796 C333.793075,207.412666 318.653437,222.539983 303.523208,237.667077 L288.395044,252.794071 L288.395044,239.39323 L269.172973,258.614274 L269.172973,242.278274 L299.968805,211.507566 L299.968805,228.766858 C316.348009,216.583805 332.659513,204.400752 348.971018,192.285796 Z M288.395044,145.178761 L288.395044,131.709823 L348.971018,192.285796 C332.659513,180.102743 316.348009,167.920088 299.968805,155.737035 L299.968805,172.996327 L269.172973,142.224274 L269.173266,125.933932 C275.572834,132.346162 281.978745,138.762461 288.395044,145.178761 Z M115.397973,125.888274 L115.397973,142.224274 L84.6031858,172.996327 L84.6031858,155.737035 C68.2239823,167.920088 51.9124779,180.102743 35.6009735,192.285796 C50.7278429,177.107854 65.8549364,161.968216 80.9819179,146.837987 L96.1088496,131.709823 L96.1088496,145.178761 L115.397973,125.888274 Z M192.286195,35.5332743 C183.148606,47.817677 174.011466,60.1020796 164.874269,72.3579217 L155.737035,84.6031858 L173.064027,84.6031858 L142.244973,115.398274 L125.887973,115.398274 L145.178761,96.1088496 L131.709823,96.1088496 L192.286195,35.5332743 Z M192.286195,35.5332743 L252.86177,96.1088496 L239.39323,96.1088496 C245.813888,102.529664 252.234608,108.960969 258.659495,115.398635 L242.325973,115.398274 L211.507965,84.6031858 L228.834558,84.6031858 C216.651903,68.2916814 204.46885,51.9124779 192.286195,35.5332743 Z" id="Combined-Shape"></path> <g id="Group-3" transform="translate(0.947389, 396.079248)"> <polygon id="_21727248" points="-1.42108547e-13 0.0665044248 39.3913274 0.0665044248 39.3913274 13.4677434 -1.42108547e-13 13.4677434"></polygon> <polygon id="_153214448" points="11.5737611 1.01429204 27.8175664 1.01429204 27.8175664 53.8064602 11.5737611 53.8064602"></polygon> <polygon id="_153222792" points="43.7905752 0.0665044248 72.6232301 0.0665044248 72.6232301 13.4677434 43.7905752 13.4677434"></polygon> <polygon id="_153141656" points="44.7383628 20.2368584 72.6236283 20.2368584 72.6236283 33.6380973 44.7383628 33.6380973"></polygon> <polygon id="_20209296" points="43.7905752 40.4032301 72.6232301 40.4032301 72.6232301 53.804469 43.7905752 53.804469"></polygon> <polygon id="_153682664" points="42.7754867 0.0665044248 58.2069027 0.0665044248 58.2069027 53.8064602 42.7754867 53.8064602"></polygon> <polygon id="_154074952" points="77.9025664 0.0665044248 93.1985841 0.0665044248 93.1985841 53.8064602 77.9025664 53.8064602"></polygon> <polygon id="_154648216" points="77.9025664 40.4032301 107.682611 40.4032301 107.682611 53.804469 77.9025664 53.804469"></polygon> <polygon id="_153118792" points="112.014558 0.0665044248 140.847212 0.0665044248 140.847212 13.4677434 112.014558 13.4677434"></polygon> <polygon id="_153120208" points="112.961947 20.2368584 140.847212 20.2368584 140.847212 33.6380973 112.961947 33.6380973"></polygon> <polygon id="_152781584" points="112.014558 40.4032301 140.847212 40.4032301 140.847212 53.804469 112.014558 53.804469"></polygon> <polygon id="_152937136" points="111.067168 0.0665044248 126.363186 0.0665044248 126.363186 53.8064602 111.067168 53.8064602"></polygon> <polygon id="_153181784" points="146.126549 0.0665044248 174.959204 0.0665044248 174.959204 13.4677434 146.126549 13.4677434"></polygon> <polygon id="_153675232" points="147.141637 20.2368584 175.974292 20.2368584 175.974292 33.6380973 147.141637 33.6380973"></polygon> <polygon id="_153417672" points="145.178761 0.0665044248 160.474779 0.0665044248 160.474779 53.8064602 145.178761 53.8064602"></polygon> <polygon id="_152854928" points="223.081726 0.0665044248 238.377743 0.0665044248 238.377743 53.8064602 223.081726 53.8064602"></polygon> <polygon id="_21712984" points="248.056726 0.0665044248 263.352743 0.0665044248 263.352743 53.8064602 248.056726 53.8064602"></polygon> <polygon id="_153478640" points="267.278496 0.0665044248 282.574513 0.0665044248 282.574513 53.8064602 267.278496 53.8064602"></polygon> <path d="M306.669425,53.8076549 C302.879469,44.8737611 299.021416,35.939469 295.163363,26.9378761 C298.953717,18.0035841 302.81177,9.00199115 306.669425,2.23820962e-13 L291.305708,2.23820962e-13 C287.515354,8.93429204 283.657301,17.935885 279.799646,26.9378761 C283.59,35.8717699 287.447655,44.8060619 291.305708,53.8076549 L306.669425,53.8076549 Z" id="_154584520"></path> <polygon id="_153476224" points="311.474867 0.0665044248 340.307522 0.0665044248 340.307522 13.4677434 311.474867 13.4677434"></polygon> <polygon id="_153583832" points="312.490354 20.2368584 340.375619 20.2368584 340.375619 33.6380973 312.490354 33.6380973"></polygon> <polygon id="_153482328" points="311.474867 40.4032301 340.307522 40.4032301 340.307522 53.804469 311.474867 53.804469"></polygon> <polygon id="_153176664" points="310.527478 0.0665044248 325.958894 0.0665044248 325.958894 53.8064602 310.527478 53.8064602"></polygon> <path d="M248.056726,53.8076549 C241.017611,35.8717699 233.978496,17.935885 226.87208,8.17124146e-14 L238.445841,8.17124146e-14 L259.562389,53.8076549 L248.056726,53.8076549 Z" id="_153229328"></path> <polygon id="_152935608" points="344.165575 0.0665044248 359.596991 0.0665044248 359.596991 53.8064602 344.165575 53.8064602"></polygon> <polygon id="_152856880" points="369.207876 0.0665044248 384.503894 0.0665044248 384.503894 53.8064602 369.207876 53.8064602"></polygon> <path d="M369.207876,53.8076549 C362.169159,35.8717699 355.130044,17.935885 348.023628,8.17124146e-14 L359.596991,8.17124146e-14 L380.713938,53.8076549 L369.207876,53.8076549 Z" id="_152837208"></path> <path d="M219.223673,34.5850885 C219.223673,45.2110619 210.628274,53.8068584 200.001903,53.8068584 C189.375531,53.8068584 180.779735,45.2110619 180.779735,34.5850885 L180.779735,-0.000796460177 L196.144248,-0.000796460177 L196.144248,34.5850885 C196.144248,36.7510619 197.836327,38.4431416 200.001903,38.4431416 C202.100177,38.4431416 203.859956,36.7510619 203.859956,34.5850885 L203.859956,-0.000796460177 L219.223673,-0.000796460177 L219.223673,34.5850885 L219.223673,34.5850885 Z" id="_153429000"></path> </g> <g id="Group-2" transform="translate(126.836681, 124.941903)"> <polygon id="_153108072" points="-3.33955086e-13 0.135 28.1556637 0.135 28.1556637 9.74588496 -3.33955086e-13 9.74588496"></polygon> <polygon id="_21727320" points="8.25730088 0.135 19.8987611 0.135 19.8987611 38.5785398 8.25730088 38.5785398"></polygon> <polygon id="_152837688" points="37.4284513 8.8817842e-16 58.0038053 8.8817842e-16 58.0038053 9.61088496 37.4284513 9.61088496"></polygon> <polygon id="_21727128" points="38.1054425 14.4163274 58.0042035 14.4163274 58.0042035 24.0272124 38.1054425 24.0272124"></polygon> <polygon id="_152859360" points="37.4284513 28.8326549 58.0038053 28.8326549 58.0038053 38.4435398 37.4284513 38.4435398"></polygon> <polygon id="_154586696" points="36.7518584 3.55271368e-14 47.7163274 3.55271368e-14 47.7163274 38.4435398 36.7518584 38.4435398"></polygon> <polygon id="_154189584" points="77.0232743 3.55271368e-14 87.9877434 3.55271368e-14 87.9877434 38.4435398 77.0232743 38.4435398"></polygon> <polygon id="_152763832" points="77.0232743 28.8326549 98.2756195 28.8326549 98.2756195 38.4435398 77.0232743 38.4435398"></polygon> <polygon id="_154498168" points="110.187478 8.8817842e-16 130.762832 8.8817842e-16 130.762832 9.61088496 110.187478 9.61088496"></polygon> <polygon id="_153584240" points="110.864469 14.4163274 130.76323 14.4163274 130.76323 24.0272124 110.864469 24.0272124"></polygon> <polygon id="_153223024" points="110.187478 28.8326549 130.762832 28.8326549 130.762832 38.4435398 110.187478 38.4435398"></polygon> <polygon id="_21732616" points="109.442788 3.55271368e-14 120.407257 3.55271368e-14 120.407257 38.4435398 109.442788 38.4435398"></polygon> <polygon id="_152836584" points="0.744690265 48.1221239 21.3200442 48.1221239 21.3200442 57.7330088 0.744690265 57.7330088"></polygon> <polygon id="_21625208" points="1.42128319 62.5384513 21.9966372 62.5384513 21.9966372 72.1493363 1.42128319 72.1493363"></polygon> <polygon id="_152477512" points="0.067699115 48.1221239 11.0321681 48.1221239 11.0321681 86.5656637 0.067699115 86.5656637"></polygon> <polygon id="_155038792" points="0.067699115 96.1769469 11.5737611 96.1769469 11.5737611 136.516062 0.067699115 136.516062"></polygon> <path d="M29.6450442,136.515664 C26.8024779,129.815044 23.8922124,123.114425 20.9815487,116.346106 C23.8245133,109.645885 26.7347788,102.945265 29.6450442,96.1765487 L18.0712832,96.1765487 C15.2287168,102.877566 12.3861504,109.578186 9.47548673,116.346106 C12.3184513,123.046726 15.1610177,129.747345 18.0712832,136.515664 L29.6450442,136.515664 Z" id="_21543656"></path> <polygon id="_153484368" points="54.1461504 96.244646 75.8046903 96.244646 75.8046903 106.262124 54.1461504 106.262124"></polygon> <polygon id="_152864536" points="54.8904425 111.270265 75.7369912 111.270265 75.7369912 121.422743 54.8904425 121.422743"></polygon> <polygon id="_154176912" points="54.1461504 126.498584 75.8046903 126.498584 75.8046903 136.515664 54.1461504 136.515664"></polygon> <polygon id="_153468032" points="53.4014602 96.1769469 64.9075221 96.1769469 64.9075221 136.516062 53.4014602 136.516062"></polygon> <polygon id="_153103536" points="102.133274 48.1221239 113.097743 48.1221239 113.097743 86.5656637 102.133274 86.5656637"></polygon> <polygon id="_152904032" points="120.00146 48.1221239 130.965929 48.1221239 130.965929 86.5656637 120.00146 86.5656637"></polygon> <path d="M120.00146,86.5656637 C114.99292,73.7737168 109.916681,60.9140708 104.840442,48.0544248 L113.097743,48.0544248 C118.106283,60.8463717 123.114823,73.7060177 128.191062,86.5656637 L120.00146,86.5656637 Z" id="_153222856"></path> <polygon id="_152854336" points="100.508894 96.1769469 112.014956 96.1769469 112.014956 136.516062 100.508894 136.516062"></polygon> <polygon id="_153611976" points="119.25677 96.1769469 130.762832 96.1769469 130.762832 136.516062 119.25677 136.516062"></polygon> <path d="M119.25677,136.515664 C113.977832,123.114425 108.698496,109.645885 103.419159,96.1765487 L112.082655,96.1765487 C117.361991,109.578186 122.640929,123.046726 127.920265,136.515664 L119.25677,136.515664 Z" id="_153144512"></path> <path d="M79.1888496,72.8259292 C79.1888496,80.4066372 73.029823,86.5656637 65.4495133,86.5656637 C57.8684071,86.5656637 51.7093805,80.4066372 51.7093805,72.8259292 L51.7093805,48.0544248 L62.6738496,48.0544248 L62.6738496,72.8259292 C62.6738496,74.3149115 63.9601327,75.5334956 65.4495133,75.5334956 C66.9384956,75.5334956 68.2243805,74.3149115 68.2243805,72.8259292 L68.2243805,48.0544248 L79.1888496,48.0544248 L79.1888496,72.8259292 L79.1888496,72.8259292 Z" id="_153425936"></path> </g> </g> </g> </g> </g> </svg> 