<?xml version="1.0" encoding="UTF-8"?> <svg xmlns="http://www.w3.org/2000/svg" xmlns:xlink="http://www.w3.org/1999/xlink" width="500px" height="500px" viewBox="0 0 500 500"> <!-- Generator: Sketch 63.1 (92452) - https://sketch.com --> <title>lg_neumann</title> <desc>Created with Sketch.</desc> <g id="Page-1" stroke="none" stroke-width="1" fill="none" fill-rule="evenodd"> <g id="Artboard" transform="translate(-1412.000000, -228.000000)"> <g id="lg_neumann" transform="translate(1412.000000, 228.000000)"> <rect id="Rectangle" x="0" y="0" width="500" height="500"></rect> <g id="neumann" transform="translate(25.000000, 25.000000)" fill="#FFFFFF"> <path d="M0,224.678571 L224.678571,0 L449.357143,224.678571 L224.678571,449.357143 L0,224.678571 Z M20.5714286,224.678571 L224.678571,428.785714 L428.785714,224.678571 L224.678571,20.5714286 L20.5714286,224.678571 Z M258.857143,127.285714 C299.035714,141.321429 327.857143,179.678571 327.857143,224.678571 C327.857143,269.678571 299.035714,308.035714 258.857143,322.071429 L258.857143,315.964286 C295.821429,302.142857 322.071429,266.464286 322.071429,224.678571 C322.071429,186.642857 300.321429,153.75 268.607143,137.678571 L268.607143,144.214286 C297.107143,159.75 316.392857,189.964286 316.392857,224.678571 C316.392857,263.25 292.607143,296.25 258.857143,309.75 L258.857143,303.535714 C289.285714,290.357143 310.607143,260.035714 310.607143,224.678571 C310.607143,193.285714 293.785714,165.75 268.607143,150.75 L268.607143,157.607143 C290.464286,171.964286 304.821429,196.607143 304.821429,224.678571 C304.821429,256.714286 286.071429,284.357143 258.857143,297.214286 L258.857143,290.785714 C282.75,278.464286 299.142857,253.5 299.142857,224.678571 C299.142857,200.035714 287.035714,178.178571 268.607143,164.571429 L268.607143,276.642857 L265.821429,278.357143 L264.321429,278.357143 L258.857143,272.464286 L246.75,258.535714 L246.75,241.5 L258.857143,255.428571 L258.857143,158.571429 L258.857143,152.142857 L258.857143,145.821429 L258.857143,139.607143 L258.857143,133.392857 L258.857143,127.285714 Z M202.607143,207.857143 L190.5,193.928571 L190.5,290.785714 L190.5,297.214286 L190.5,303.535714 L190.5,309.75 L190.5,315.964286 L190.5,322.071429 C150.321429,308.035714 121.5,269.678571 121.5,224.678571 C121.5,179.678571 150.321429,141.321429 190.5,127.285714 L190.5,133.392857 C153.535714,147.214286 127.285714,182.892857 127.285714,224.678571 C127.285714,262.714286 149.035714,295.607143 180.75,311.678571 L180.75,305.142857 C152.357143,289.607143 132.964286,259.392857 132.964286,224.678571 C132.964286,186.107143 156.75,153.107143 190.5,139.607143 L190.5,145.821429 C160.071429,159 138.75,189.321429 138.75,224.678571 C138.75,256.071429 155.571429,283.607143 180.75,298.607143 L180.75,291.75 C158.892857,277.392857 144.535714,252.75 144.535714,224.678571 C144.535714,192.642857 163.285714,165 190.5,152.142857 L190.5,158.571429 C166.607143,170.892857 150.214286,195.857143 150.214286,224.678571 C150.214286,249.321429 162.321429,271.178571 180.75,284.785714 L180.75,172.714286 L183.535714,171 L185.035714,171 L190.5,176.892857 L190.5,177 L202.607143,190.928571 L202.607143,207.857143 Z M228.857143,272.464286 L224.571429,258 L220.285714,272.464286 L228.857143,272.464286 Z M240.321429,288 L233.571429,288 L230.892857,279.107143 L218.357143,279.107143 L215.785714,288 L209.142857,288 L221.25,248.892857 L228,248.892857 L240.321429,288 Z M209.035714,243.964286 L209.035714,204.857143 L215.035714,204.857143 L224.678571,217.392857 L234.321429,204.857143 L240.321429,204.857143 L240.321429,243.964286 L234.321429,243.964286 L234.321429,216 L224.678571,227.464286 L215.035714,216 L215.035714,243.964286 L209.035714,243.964286 Z M209.142857,161.357143 L216.964286,161.357143 L216.964286,182.142857 C216.964286,185.25 217.178571,187.5 217.285714,188.892857 C217.607143,190.285714 218.357143,191.464286 219.642857,192.428571 C220.928571,193.285714 222.642857,193.821429 225,193.821429 C227.892857,193.821429 229.821429,193.178571 230.892857,191.785714 C231.964286,190.5 232.5,187.392857 232.5,182.571429 L232.5,161.357143 L240.321429,161.357143 L240.321429,181.607143 C240.321429,186.321429 240.107143,189.857143 239.464286,192.214286 C238.928571,194.571429 237.428571,196.5 235.178571,198.107143 C232.821429,199.714286 229.5,200.464286 225.214286,200.464286 C220.928571,200.464286 217.607143,199.821429 215.25,198.428571 C212.892857,197.142857 211.285714,195.321429 210.428571,193.178571 C209.571429,191.035714 209.142857,187.285714 209.142857,181.928571 L209.142857,161.357143 Z M209.142857,156.535714 L209.142857,117.321429 L240.321429,117.321429 L240.321429,123.964286 L218.142857,123.964286 L218.142857,132.642857 L240.321429,132.642857 L240.321429,139.285714 L218.142857,139.285714 L218.142857,149.892857 L240.321429,149.892857 L240.321429,156.535714 L209.142857,156.535714 Z M209.142857,112.5 L209.142857,73.3928571 L216.75,73.3928571 L233.035714,99.5357143 L233.035714,73.3928571 L240.321429,73.3928571 L240.321429,112.5 L232.392857,112.5 L216.428571,87 L216.428571,112.5 L209.142857,112.5 Z M209.142857,332.035714 L209.142857,292.821429 L216.75,292.821429 L233.035714,318.964286 L233.035714,292.821429 L240.321429,292.821429 L240.321429,332.035714 L232.392857,332.035714 L216.428571,306.428571 L216.428571,332.035714 L209.142857,332.035714 Z M209.142857,375.964286 L209.142857,336.857143 L216.75,336.857143 L233.035714,363 L233.035714,336.857143 L240.321429,336.857143 L240.321429,375.964286 L232.392857,375.964286 L216.428571,350.464286 L216.428571,375.964286 L209.142857,375.964286 Z M196.928571,62.0357143 L252.428571,62.0357143 L252.428571,239.357143 L246.75,232.714286 L246.75,67.8214286 L202.607143,67.8214286 L202.607143,182.142857 L196.928571,175.5 L196.928571,62.0357143 Z M252.428571,273.964286 L252.428571,387.321429 L196.928571,387.321429 L196.928571,210 L202.607143,216.642857 L202.607143,381.535714 L246.75,381.535714 L246.75,267.321429 L252.428571,273.964286 Z" id="Shape"></path> </g> </g> </g> </g> </svg> 